<svg xmlns="http://www.w3.org/2000/svg" width="80" height="80" viewBox="0 0 80 80"><rect width="100%" height="100%" fill="#cccccc"/><path fill="#333333" d="M20.83 35.73h1.42v8.68h-.83q-.19 0-.32-.06-.13-.07-.25-.22l-4.53-5.78q.04.4.04.73v5.33h-1.43v-8.68h.85q.1 0 .18.01.07.01.13.04t.11.08.12.13l4.55 5.81q-.02-.21-.03-.41-.01-.21-.01-.38zm5.84 2.43q.68 0 1.25.22.56.22.96.63.39.41.61 1 .22.58.22 1.31t-.22 1.32-.61 1q-.4.42-.96.64-.57.22-1.25.22-.69 0-1.25-.22-.57-.22-.97-.64-.4-.41-.61-1-.22-.59-.22-1.32t.22-1.31q.21-.59.61-1t.97-.63q.56-.22 1.25-.22m0 5.2q.77 0 1.14-.52.37-.51.37-1.51 0-.99-.37-1.52-.37-.52-1.14-.52-.78 0-1.16.53-.37.52-.37 1.51t.37 1.51q.38.52 1.16.52m8.93-3.26h1.21q.44 0 .77-.11.33-.12.55-.32.22-.21.33-.51.11-.29.11-.66 0-.35-.11-.63t-.32-.48q-.22-.2-.55-.3-.33-.11-.78-.11H35.6zm-1.61-4.37h2.82q.87 0 1.51.21.63.2 1.05.57.41.36.61.87t.2 1.12q0 .63-.21 1.16-.21.52-.63.9t-1.05.59-1.48.21H35.6v3.05h-1.61zm8.68-.24v3.42q.36-.33.79-.54t1.01-.21q.51 0 .9.17t.65.48.39.74q.14.43.14.94v3.92h-1.48v-3.92q0-.56-.26-.87t-.79-.31q-.38 0-.72.17-.33.18-.63.48v4.45h-1.49v-8.92zm8.01 2.67q.68 0 1.24.22t.96.63.62 1q.21.58.21 1.31t-.21 1.32q-.22.59-.62 1-.4.42-.96.64t-1.24.22q-.69 0-1.26-.22-.56-.22-.96-.64-.4-.41-.62-1t-.22-1.32.22-1.31q.22-.59.62-1t.96-.63q.57-.22 1.26-.22m0 5.2q.76 0 1.13-.52.37-.51.37-1.51 0-.99-.37-1.52-.37-.52-1.13-.52-.78 0-1.16.53-.37.52-.37 1.51t.37 1.51q.38.52 1.16.52m6.22 1.15q-.81 0-1.23-.46-.43-.45-.43-1.25v-3.44h-.63q-.12 0-.21-.07-.08-.08-.08-.24v-.59l.99-.16.31-1.68q.03-.12.11-.18.09-.07.22-.07h.77v1.94h1.64v1.05h-1.64v3.34q0 .29.14.45t.39.16q.13 0 .23-.03.09-.03.16-.07l.12-.07q.06-.03.11-.03.07 0 .11.03t.09.1l.44.72q-.32.27-.74.41t-.87.14m5.13-6.35q.69 0 1.25.22t.96.63.61 1q.22.58.22 1.31t-.22 1.32q-.21.59-.61 1-.4.42-.96.64t-1.25.22-1.25-.22-.96-.64q-.4-.41-.62-1t-.22-1.32.22-1.31q.22-.59.62-1t.96-.63 1.25-.22m0 5.2q.77 0 1.14-.52.37-.51.37-1.51 0-.99-.37-1.52-.37-.52-1.14-.52-.78 0-1.15.53-.38.52-.38 1.51t.38 1.51q.37.52 1.15.52"/></svg>